<svg width="64" height="64" viewBox="0 0 64 64" fill="none" xmlns="http://www.w3.org/2000/svg">
<path d="M15.4061 35.1069H21.6387C21.8747 35.1069 22.1009 35.2007 22.2677 35.3675C22.4345 35.5343 22.5283 35.7605 22.5283 35.9965V41.6857C22.5283 41.7912 22.4864 41.8924 22.4117 41.967C22.3371 42.0416 22.236 42.0835 22.1305 42.0835H14.9144C14.8089 42.0835 14.7077 42.0416 14.6331 41.967C14.5585 41.8924 14.5166 41.7912 14.5166 41.6857V35.9965C14.5166 35.7605 14.6103 35.5343 14.7771 35.3675C14.944 35.2007 15.1702 35.1069 15.4061 35.1069Z" fill="#957BB7"/>
<path d="M35.6078 35.1069H28.3917C28.172 35.1069 27.9939 35.285 27.9939 35.5047V41.6852C27.9939 41.9049 28.172 42.083 28.3917 42.083H35.6078C35.8275 42.083 36.0056 41.9049 36.0056 41.6852V35.5047C36.0056 35.285 35.8275 35.1069 35.6078 35.1069Z" fill="#957BB7"/>
<path d="M42.361 35.1069H48.5936C48.8295 35.1069 49.0557 35.2007 49.2226 35.3675C49.3894 35.5343 49.4831 35.7605 49.4831 35.9965V41.6857C49.4831 41.7912 49.4412 41.8924 49.3666 41.967C49.292 42.0416 49.1908 42.0835 49.0853 42.0835H41.8692C41.7637 42.0835 41.6626 42.0416 41.5879 41.967C41.5133 41.8924 41.4714 41.7912 41.4714 41.6857V35.9965C41.4714 35.7605 41.5652 35.5343 41.732 35.3675C41.8988 35.2007 42.125 35.1069 42.361 35.1069Z" fill="#957BB7"/>
<path d="M15.9764 4H22.209C22.445 4 22.6712 4.09372 22.838 4.26054C23.0049 4.42736 23.0986 4.65361 23.0986 4.88953V10.5788C23.0986 10.6843 23.0567 10.7855 22.9821 10.8601C22.9075 10.9347 22.8063 10.9766 22.7008 10.9766H15.4847C15.3792 10.9766 15.278 10.9347 15.2034 10.8601C15.1288 10.7855 15.0869 10.6843 15.0869 10.5788V4.88953C15.0869 4.65361 15.1806 4.42736 15.3475 4.26054C15.5143 4.09372 15.7405 4 15.9764 4Z" fill="#957BB7"/>
<path d="M49.871 42.0835H14.1291C12.4996 42.0835 11.1787 43.4044 11.1787 45.0338V57.0496C11.1787 58.679 12.4996 60 14.1291 60H49.871C51.5004 60 52.8214 58.679 52.8214 57.0496V45.0338C52.8214 43.4044 51.5004 42.0835 49.871 42.0835Z" fill="#5D4A9D"/>
<path d="M24.0565 10.9766H14.1291C12.4996 10.9766 11.1787 12.2975 11.1787 13.9269V23.8543C11.1787 25.4838 12.4996 26.8047 14.1291 26.8047H24.0565C25.6859 26.8047 27.0068 25.4838 27.0068 23.8543V13.9269C27.0068 12.2975 25.6859 10.9766 24.0565 10.9766Z" fill="#5D4A9D"/>
</svg>
