<svg width="72" height="56" viewBox="0 0 72 56" fill="none" xmlns="http://www.w3.org/2000/svg">
<path d="M60.1781 33.9383H32.9823C32.8985 33.9383 32.8167 33.9134 32.7472 33.8669C32.6776 33.8203 32.6234 33.7542 32.5914 33.6768L21.9085 7.73083C21.882 7.66656 21.8715 7.59673 21.8784 7.52752C21.8852 7.45832 21.9091 7.39187 21.9478 7.33406C21.9865 7.27625 22.0389 7.22884 22.1003 7.19606C22.1616 7.16328 22.2299 7.14613 22.2994 7.14612H70.8602C70.9298 7.14599 70.9983 7.16306 71.0597 7.19578C71.1212 7.2285 71.1734 7.27586 71.2122 7.3337C71.2509 7.39153 71.2751 7.45804 71.282 7.52732C71.2889 7.59659 71.2784 7.66649 71.2519 7.73083L60.569 33.6768C60.537 33.7542 60.4828 33.8203 60.4132 33.8669C60.3436 33.9134 60.2619 33.9383 60.1781 33.9383Z" fill="#884ADC"/>
<path d="M34.8689 50.4849C34.8688 51.5759 34.5451 52.6423 33.9389 53.5493C33.3327 54.4563 32.4712 55.1632 31.4632 55.5806C30.4552 55.9979 29.346 56.1071 28.276 55.8941C27.2061 55.6812 26.2234 55.1558 25.452 54.3843C24.6807 53.6128 24.1555 52.6299 23.9427 51.5599C23.73 50.4899 23.8392 49.3808 24.2567 48.3729C24.6743 47.365 25.3812 46.5036 26.2883 45.8975C27.1954 45.2914 28.2618 44.9679 29.3527 44.9679C30.0772 44.9679 30.7947 45.1106 31.464 45.3879C32.1333 45.6651 32.7412 46.0715 33.2535 46.5838C33.7657 47.0962 34.172 47.7044 34.4492 48.3737C34.7263 49.0431 34.869 49.7605 34.8689 50.4849Z" fill="#E3D7F2"/>
<path d="M67.6548 50.4849C67.6546 51.5759 67.331 52.6423 66.7247 53.5494C66.1184 54.4564 65.2566 55.1633 64.2486 55.5807C63.2406 55.998 62.1314 56.1071 61.0614 55.8941C59.9914 55.6811 59.0088 55.1555 58.2374 54.384C57.4661 53.6124 56.9408 52.6294 56.7281 51.5594C56.5155 50.4893 56.6249 49.3802 57.0426 48.3723C57.4602 47.3645 58.1673 46.5031 59.0745 45.8971C59.9817 45.2911 61.0484 44.9677 62.1394 44.9679C62.8638 44.968 63.581 45.1108 64.2503 45.3881C64.9195 45.6654 65.5275 46.0719 66.0397 46.5842C66.5518 47.0965 66.9579 47.7046 67.235 48.3739C67.5121 49.0432 67.6549 49.7605 67.6548 50.4849Z" fill="#E3D7F2"/>
<path d="M15.1777 5.2418H2.32696C1.70981 5.2418 1.11811 4.99665 0.681726 4.56026C0.245337 4.12387 0 3.532 0 2.91485C0 2.2977 0.245337 1.70585 0.681726 1.26946C1.11811 0.833072 1.70981 0.587891 2.32696 0.587891H15.1777C15.7948 0.587891 16.3865 0.833072 16.8229 1.26946C17.2593 1.70585 17.5046 2.2977 17.5046 2.91485C17.5046 3.532 17.2593 4.12387 16.8229 4.56026C16.3865 4.99665 15.7948 5.2418 15.1777 5.2418Z" fill="#E3D7F2"/>
</svg>
