<svg width="49" height="65" viewBox="0 0 49 65" fill="none" xmlns="http://www.w3.org/2000/svg">
<path d="M20.8799 30.7737L1.73035 60.2795L4.44577 62.0419L23.5954 32.5361L20.8799 30.7737Z" fill="#E3D7F2"/>
<path d="M3.08397 64.1283C2.55017 64.1281 2.02648 63.9838 1.56783 63.7107C1.10918 63.4376 0.732635 63.0457 0.478082 62.5765C0.223529 62.1073 0.100357 61.5781 0.121461 61.0447C0.142565 60.5114 0.306939 59.9935 0.597767 59.5459L9.66707 45.5694C10.1011 44.9222 10.7724 44.4718 11.5358 44.3153C12.2991 44.1589 13.0933 44.309 13.7469 44.7332C14.4005 45.1575 14.8611 45.8218 15.029 46.5827C15.1969 47.3436 15.0587 48.14 14.6443 48.7999L5.57505 62.7765C5.30578 63.1919 4.93667 63.5333 4.50153 63.7695C4.0664 64.0056 3.57906 64.129 3.08397 64.1283Z" fill="#884ADC"/>
<path d="M48.9996 17.3002C48.9996 20.7218 47.9851 24.0666 46.0841 26.9116C44.1832 29.7566 41.4812 31.974 38.32 33.2834C35.1588 34.5928 31.6804 34.9354 28.3245 34.2679C24.9686 33.6004 21.886 31.9527 19.4666 29.5332C17.0471 27.1137 15.3994 24.0312 14.7319 20.6753C14.0644 17.3194 14.4067 13.8409 15.7162 10.6797C17.0256 7.51848 19.2433 4.81657 22.0883 2.9156C24.9333 1.01464 28.278 0 31.6996 0C36.2879 0 40.6882 1.82269 43.9326 5.0671C47.1771 8.3115 48.9996 12.7119 48.9996 17.3002Z" fill="#E3D7F2"/>
<path d="M45.7119 17.3008C45.7119 20.0718 44.8905 22.7806 43.351 25.0847C41.8115 27.3887 39.623 29.1845 37.0629 30.2449C34.5028 31.3053 31.6859 31.5828 28.9681 31.0422C26.2503 30.5016 23.7537 29.1672 21.7943 27.2078C19.8349 25.2484 18.5005 22.7519 17.9599 20.0341C17.4193 17.3163 17.6967 14.4992 18.7571 11.9391C19.8176 9.37903 21.6134 7.19089 23.9174 5.65138C26.2214 4.11188 28.9303 3.29016 31.7014 3.29016C35.4172 3.29016 38.981 4.76626 41.6085 7.39377C44.236 10.0213 45.7119 13.5849 45.7119 17.3008Z" fill="#884ADC"/>
</svg>
