<svg width="55" height="110" viewBox="0 0 55 110" fill="none" xmlns="http://www.w3.org/2000/svg">
<path d="M22.5029 72.2538L4.93797 84.6135C4.45575 84.9528 3.88765 85.1493 3.29883 85.1803C2.71001 85.2112 2.12437 85.0754 1.60924 84.7885C1.09411 84.5016 0.670367 84.0751 0.386658 83.5582C0.102949 83.0413 -0.0291838 82.4549 0.00539663 81.8663L1.20155 61.4649C1.2292 60.9941 1.36276 60.5357 1.59217 60.1237C1.82158 59.7117 2.14094 59.3566 2.52656 59.0851L9.69048 54.0451C10.027 53.8082 10.407 53.6398 10.8086 53.5498C11.2102 53.4597 11.6258 53.4495 12.0313 53.5201C12.4368 53.5906 12.8244 53.7403 13.1721 53.9606C13.5197 54.181 13.8206 54.4677 14.0574 54.8044L23.2629 67.887C23.4998 68.2236 23.6682 68.6036 23.7582 69.0053C23.8482 69.4069 23.8582 69.8223 23.7876 70.2278C23.717 70.6334 23.5673 71.021 23.3468 71.3686C23.1264 71.7163 22.8396 72.0171 22.5029 72.2538Z" fill="#410099"/>
<path d="M31.3739 71.8761L50.5846 85.3933C50.966 85.6619 51.4154 85.8173 51.8812 85.8418C52.3471 85.8664 52.8104 85.7591 53.2179 85.5322C53.6255 85.3053 53.9607 84.968 54.1852 84.5591C54.4097 84.1501 54.5143 83.6862 54.4869 83.2205L53.1919 61.1489C53.1701 60.7763 53.0646 60.4135 52.8831 60.0875C52.7015 59.7615 52.4486 59.4807 52.1434 59.266L44.1863 53.6673C43.6484 53.2889 42.9823 53.1396 42.3344 53.2522C41.6864 53.3648 41.1097 53.7301 40.7311 54.2678L30.7758 68.4211C30.5882 68.6872 30.4548 68.9876 30.3833 69.3053C30.3119 69.623 30.3037 69.9517 30.3592 70.2725C30.4148 70.5934 30.5329 70.9001 30.707 71.1753C30.8811 71.4504 31.1077 71.6885 31.3739 71.8761Z" fill="#410099"/>
<path d="M27.2471 88.5214C24.1707 88.5213 21.1364 87.807 18.383 86.4348C15.6297 85.0626 13.2326 83.07 11.3804 80.6137C9.52818 78.1575 8.27145 75.3047 7.70927 72.2802C7.14709 69.2557 7.29479 66.1419 8.14069 63.1841L14.0704 42.4502L25.685 1.83875C25.7821 1.49957 25.9871 1.20121 26.2689 0.988846C26.5506 0.776478 26.8939 0.661499 27.2467 0.661499C27.5995 0.661499 27.9427 0.776478 28.2245 0.988846C28.5062 1.20121 28.7111 1.49957 28.8083 1.83875L40.4229 42.4502L46.3534 63.1841C47.1993 66.1419 47.347 69.2558 46.7847 72.2804C46.2225 75.305 44.9658 78.1577 43.1135 80.6139C41.2612 83.0702 38.8639 85.0628 36.1105 86.435C33.3571 87.8071 30.3235 88.5214 27.2471 88.5214Z" fill="#957BC6"/>
<path d="M27.2442 40.761C31.1654 40.761 34.3441 37.5823 34.3441 33.6611C34.3441 29.74 31.1654 26.5612 27.2442 26.5612C23.323 26.5612 20.1443 29.74 20.1443 33.6611C20.1443 37.5823 23.323 40.761 27.2442 40.761Z" fill="#CCB9EF"/>
<path d="M27.2451 102.482C26.0275 102.482 24.832 100.664 23.6619 98.689C23.5563 98.5111 23.3871 98.3799 23.1884 98.3221C22.9898 98.2643 22.7766 98.2843 22.5921 98.3778C22.4076 98.4714 22.2655 98.6316 22.1946 98.8259C22.1238 99.0203 22.1295 99.2344 22.2105 99.4247L26.496 109.416C26.5586 109.563 26.6631 109.689 26.7966 109.777C26.9301 109.865 27.0865 109.912 27.2466 109.912C27.4067 109.912 27.5633 109.865 27.6967 109.777C27.8302 109.689 27.9347 109.563 27.9973 109.416L32.2828 99.4255C32.3638 99.2351 32.3695 99.0211 32.2987 98.8267C32.2278 98.6323 32.0858 98.4721 31.9012 98.3786C31.7167 98.2851 31.5035 98.2651 31.3049 98.3229C31.1062 98.3807 30.937 98.5118 30.8314 98.6898C29.6581 100.66 28.4626 102.482 27.2451 102.482Z" fill="#957BC6"/>
</svg>
