<svg width="58" height="47" viewBox="0 0 58 47" fill="none" xmlns="http://www.w3.org/2000/svg">
<g clip-path="url(#clip0_201_15)">
<path d="M57.0632 46.7614H10.8861C10.7486 46.7614 10.6168 46.7068 10.5196 46.6095C10.4223 46.5123 10.3677 46.3804 10.3677 46.2429V10.8842C10.3677 10.7467 10.4223 10.6148 10.5196 10.5176C10.6168 10.4203 10.7486 10.3657 10.8861 10.3657H57.0672C57.2048 10.3657 57.3366 10.4203 57.4338 10.5176C57.531 10.6148 57.5857 10.7467 57.5857 10.8842V46.2429C57.5857 46.3804 57.531 46.5123 57.4338 46.6095C57.3366 46.7068 57.2048 46.7614 57.0672 46.7614" fill="#CCB9EF"/>
<path d="M46.6945 36.3904H0.518457C0.380953 36.3904 0.249121 36.3358 0.151892 36.2386C0.0546621 36.1414 0 36.0095 0 35.872V0.518457C0 0.380953 0.0546621 0.249058 0.151892 0.151828C0.249121 0.0545988 0.380953 0 0.518457 0H46.6996C46.8371 0 46.9689 0.0545988 47.0661 0.151828C47.1634 0.249058 47.218 0.380953 47.218 0.518457V35.872C47.218 36.0095 47.1634 36.1414 47.0661 36.2386C46.9689 36.3358 46.8371 36.3904 46.6996 36.3904" fill="#410099"/>
</g>
<defs>
<clipPath id="clip0_201_15">
<rect width="58" height="47" fill="white"/>
</clipPath>
</defs>
</svg>
