<svg width="1440" height="584" viewBox="0 0 1440 584" fill="none" xmlns="http://www.w3.org/2000/svg">
<path d="M216 473.753C341.837 464.075 284.99 323.987 352.877 328.088C420.763 332.189 409.171 542.288 456.637 542.288C504.102 542.288 444.495 434.464 524.523 433.017C604.551 431.57 559.293 508.274 617.797 506.829C676.3 505.385 599.032 360.17 724.869 358.964C850.707 357.758 825.871 572.44 881.062 570.993C936.252 569.545 934.084 390.174 980 398.311C998.55 401.598 1022.29 428.088 1036.91 450.08C1175.18 650.299 1267.78 357.674 1312 413.701C1364.93 477.215 1355.25 310.228 1397.8 313.061C1440.36 315.894 1410.24 461 1440 461" stroke="#E3D7F2" stroke-width="3" stroke-miterlimit="10"/>
<path d="M1281 199.918C1251.51 261.469 1263.01 345.776 1209.28 341.984C1127.97 336.244 1141.85 42.1859 1085 42.1859C1028.14 42.1859 1099.54 193.098 1003.68 195.123C907.823 197.148 962.032 89.7891 891.957 91.8146C821.881 93.84 914.434 297.081 763.705 298.769C612.976 300.457 642.724 -0.0152541 576.615 2.01019C510.507 4.03564 573.971 245.09 458.107 243.699C342.244 242.309 423.737 56.5698 287.056 61.0931C229.75 62.9893 231.002 91.8146 231.002 122.126" stroke="#E3D7F2" stroke-width="3" stroke-miterlimit="10" stroke-linecap="round"/>
<path d="M705.947 529.214H645.035C637.617 529.214 630.503 526.267 625.258 521.022C620.013 515.777 617.066 508.663 617.066 501.246V205.785C617.067 158.645 628.527 112.213 650.461 70.4867L650.736 69.9633C661.218 50.0227 689.768 50.0227 700.249 69.9633L700.525 70.4867C722.458 112.213 733.919 158.645 733.92 205.785V501.246C733.92 504.919 733.196 508.556 731.79 511.95C730.384 515.343 728.324 518.426 725.726 521.024C723.129 523.621 720.045 525.681 716.652 527.086C713.258 528.491 709.621 529.215 705.947 529.214Z" fill="#6051A8"/>
<path d="M705.948 529.214C713.365 529.214 720.479 526.268 725.724 521.022C730.97 515.777 733.916 508.663 733.916 501.246V205.785C733.916 158.646 722.455 112.213 700.521 70.487L700.246 69.9636C697.741 65.132 693.87 61.1445 689.114 58.4982C684.359 55.8518 678.929 54.6637 673.503 55.082L663.668 154.115V529.214H705.948Z" fill="#645AAF"/>
<mask id="mask0_151_4" style="mask-type:luminance" maskUnits="userSpaceOnUse" x="617" y="55" width="117" height="475">
<path d="M705.944 529.214H645.032C637.614 529.214 630.5 526.267 625.255 521.022C620.01 515.777 617.063 508.663 617.063 501.246V205.785C617.064 158.645 628.524 112.213 650.458 70.4866L650.733 69.9632C661.215 50.0225 689.765 50.0225 700.246 69.9632L700.522 70.4866C722.455 112.213 733.916 158.645 733.917 205.785V501.246C733.917 504.919 733.193 508.556 731.787 511.949C730.382 515.343 728.321 518.426 725.724 521.023C723.126 523.621 720.042 525.681 716.649 527.086C713.255 528.491 709.618 529.214 705.944 529.214Z" fill="white"/>
</mask>
<g mask="url(#mask0_151_4)">
<path d="M689.702 57.9678C689.702 57.9678 718.242 119.37 721.121 184.291" stroke="#CBB9EF" stroke-miterlimit="10"/>
<path d="M683.841 55.3369C683.841 55.3369 701.362 115.784 701.642 168.541" stroke="#CBB9EF" stroke-miterlimit="10"/>
<path d="M678.557 54.1986C678.557 54.1986 686.188 110.645 682.382 166.224" stroke="#CBB9EF" stroke-miterlimit="10"/>
</g>
<path opacity="0.19" d="M650.929 165.489L617.895 183.863C617.344 191.143 617.068 198.45 617.066 205.783V273.505L640.081 262.914L698.792 263.663L733.916 284.659V205.785C733.916 201.744 733.83 197.708 733.657 193.677L698.792 165.489H650.929Z" fill="#41387A"/>
<path d="M607.513 583.382H586.703C584.169 583.382 581.739 582.376 579.947 580.584C578.155 578.792 577.149 576.362 577.149 573.828V205.618C577.148 189.513 581.063 173.65 588.556 159.395L588.65 159.217C589.46 157.675 590.676 156.384 592.167 155.484C593.657 154.583 595.366 154.107 597.107 154.107C598.849 154.107 600.557 154.583 602.048 155.484C603.538 156.384 604.754 157.675 605.565 159.217L605.659 159.395C613.152 173.65 617.067 189.513 617.066 205.618V573.828C617.066 576.362 616.06 578.792 614.268 580.583C612.477 582.375 610.047 583.382 607.513 583.382Z" fill="#A791C9"/>
<path d="M597.109 196.963L599.854 154.509C597.73 153.866 595.449 153.985 593.404 154.845C591.358 155.705 589.677 157.251 588.65 159.218L588.556 159.397C581.063 173.652 577.148 189.515 577.149 205.619V573.83C577.149 576.363 578.156 578.793 579.948 580.584C581.74 582.376 584.17 583.382 586.703 583.382H597.108L597.109 196.963Z" fill="#9D83C6"/>
<mask id="mask1_151_4" style="mask-type:luminance" maskUnits="userSpaceOnUse" x="577" y="154" width="41" height="430">
<path d="M607.513 583.382H586.703C584.169 583.382 581.739 582.375 579.947 580.583C578.156 578.792 577.149 576.362 577.149 573.828V205.617C577.148 189.513 581.063 173.65 588.557 159.395L588.65 159.216C589.46 157.675 590.676 156.384 592.167 155.483C593.658 154.583 595.366 154.107 597.107 154.107C598.849 154.107 600.557 154.583 602.048 155.483C603.538 156.384 604.755 157.675 605.565 159.216L605.659 159.395C613.152 173.65 617.067 189.513 617.066 205.617V573.828C617.066 576.361 616.06 578.791 614.268 580.583C612.477 582.375 610.047 583.381 607.513 583.382Z" fill="white"/>
</mask>
<g mask="url(#mask1_151_4)">
<path d="M574.578 216.073L589.129 204.27H602.667L619.643 216.073" stroke="#5D4A9D" stroke-width="6" stroke-miterlimit="10"/>
<path d="M574.578 291.015L589.129 279.212H602.667L619.643 291.015" stroke="#5D4A9D" stroke-width="3" stroke-miterlimit="10"/>
<path d="M574.578 380.913L589.129 369.11H602.667L619.643 380.913" stroke="#5D4A9D" stroke-width="3" stroke-miterlimit="10"/>
</g>
<path d="M579.626 580.229H614.591C616.184 578.478 617.067 576.195 617.066 573.828V561.556H577.15V573.83C577.15 576.196 578.033 578.478 579.626 580.229Z" fill="#51448E"/>
<path d="M624.104 578.605H570.115L577.151 559.932H617.068L624.104 578.605Z" fill="#A791C9"/>
<path d="M617.068 560.338H577.15" stroke="#5D4A9D" stroke-miterlimit="10"/>
<path d="M600.201 557.186C600.201 555.479 598.817 554.095 597.11 554.095C595.403 554.095 594.019 555.479 594.019 557.186V564.834C594.019 566.541 595.403 567.926 597.11 567.926C598.817 567.926 600.201 566.541 600.201 564.834V557.186Z" fill="#5D4A9D"/>
<path d="M634.669 554.095L640.082 342.487L532.961 500.044C525.756 510.528 520.721 522.346 518.15 534.805C517.938 535.81 517.951 536.85 518.188 537.849C518.426 538.849 518.881 539.783 519.522 540.586C520.163 541.389 520.973 542.04 521.895 542.493C522.818 542.946 523.828 543.189 524.856 543.205C568.908 543.847 634.669 554.095 634.669 554.095Z" fill="#3C326D"/>
<path d="M640.082 554.095V352.039L538.374 500.043C531.17 510.528 526.134 522.346 523.563 534.805C523.351 535.81 523.364 536.849 523.601 537.849C523.839 538.848 524.294 539.783 524.935 540.586C525.576 541.389 526.386 542.04 527.309 542.493C528.231 542.945 529.242 543.188 530.269 543.205C574.321 543.847 640.082 554.095 640.082 554.095Z" fill="#9D83C6"/>
<path d="M523.644 534.44H640.083V529.215H524.901C524.435 530.943 524.016 532.685 523.644 534.44Z" fill="#51448E"/>
<path d="M555.534 544.362C556.653 544.441 557.774 544.522 558.899 544.606V534.44H555.534V544.362Z" fill="#51448E"/>
<path d="M650.929 507.997H533.464" stroke="#5D4A9D" stroke-miterlimit="10"/>
<path d="M710.9 554.095V342.487L820.395 500.044C827.599 510.528 832.635 522.347 835.206 534.805C835.417 535.81 835.404 536.85 835.167 537.849C834.93 538.849 834.474 539.783 833.833 540.586C833.193 541.389 832.382 542.04 831.46 542.493C830.538 542.946 829.527 543.189 828.5 543.205C784.445 543.847 710.9 554.095 710.9 554.095Z" fill="#3C326D"/>
<path d="M711.107 554.095V352.039L812.816 500.043C820.02 510.528 825.056 522.346 827.627 534.805C827.839 535.81 827.826 536.849 827.588 537.849C827.351 538.848 826.896 539.783 826.255 540.586C825.614 541.389 824.803 542.04 823.881 542.493C822.959 542.945 821.948 543.188 820.921 543.205C776.868 543.847 711.107 554.095 711.107 554.095Z" fill="#CBB9EF"/>
<path d="M797.288 477.446V544.246C805.501 543.69 813.518 543.31 820.92 543.202C821.947 543.186 822.958 542.943 823.88 542.49C824.803 542.037 825.613 541.386 826.254 540.583C826.895 539.781 827.35 538.846 827.588 537.846C827.825 536.847 827.838 535.807 827.626 534.802C825.055 522.344 820.019 510.525 812.815 500.041L797.288 477.446Z" fill="#DAD1F2"/>
<mask id="mask2_151_4" style="mask-type:luminance" maskUnits="userSpaceOnUse" x="711" y="352" width="117" height="203">
<path d="M711.107 554.096V352.04L812.816 500.044C820.02 510.528 825.056 522.347 827.627 534.805C827.839 535.81 827.826 536.85 827.588 537.849C827.351 538.849 826.896 539.784 826.255 540.586C825.614 541.389 824.803 542.04 823.881 542.493C822.959 542.946 821.948 543.189 820.921 543.205C776.868 543.848 711.107 554.096 711.107 554.096Z" fill="white"/>
</mask>
<g mask="url(#mask2_151_4)">
<path d="M720.628 485.585V576.035" stroke="#5D4A9D" stroke-miterlimit="10"/>
<path d="M735.991 486.777V576.034" stroke="#5D4A9D" stroke-miterlimit="10"/>
<path d="M751.354 485.585V576.035" stroke="#5D4A9D" stroke-miterlimit="10"/>
<path d="M765.688 487.619V576.035" stroke="#5D4A9D" stroke-miterlimit="10"/>
<path d="M782.081 489.945V576.035" stroke="#5D4A9D" stroke-miterlimit="10"/>
<path d="M797.442 492.125V576.035" stroke="#5D4A9D" stroke-miterlimit="10"/>
<path d="M707.511 531.828L751.352 525.023L797.442 532.222L842.587 531.254" stroke="#5D4A9D" stroke-miterlimit="10"/>
<path d="M707.511 514.998L751.352 508.604L797.442 518.857L844.662 517.845" stroke="#5D4A9D" stroke-miterlimit="10"/>
<path d="M707.511 502.478L751.352 496.732L797.442 505.491L851.414 504.559" stroke="#5D4A9D" stroke-width="0.5" stroke-miterlimit="10"/>
<path d="M707.511 503.182L751.352 497.437L797.442 506.195L851.414 505.263" stroke="#5D4A9D" stroke-width="0.5" stroke-miterlimit="10"/>
<path d="M707.511 503.889L751.352 498.144L797.442 506.902L851.414 505.97" stroke="#5D4A9D" stroke-width="0.5" stroke-miterlimit="10"/>
<path d="M707.512 488.988L751.353 485.585L797.442 492.125L845.6 491.092" stroke="#5D4A9D" stroke-miterlimit="10"/>
</g>
<path d="M700.059 539.78H650.925C644.937 539.78 640.083 536.002 640.083 531.341V234.905C640.091 233.594 640.471 232.313 641.178 231.209L665.745 191.958C669.703 185.634 681.281 185.634 685.24 191.958L709.806 231.209C710.513 232.313 710.893 233.594 710.901 234.905V531.341C710.901 536.002 706.048 539.78 700.059 539.78Z" fill="#957BB7"/>
<path d="M703.812 553.6H647.169C640.265 553.6 634.666 549.525 634.666 544.499V224.822C634.679 223.397 635.119 222.009 635.929 220.836L664.25 178.511C668.814 171.691 682.162 171.691 686.726 178.511L715.047 220.836C715.856 222.009 716.296 223.397 716.31 224.822V544.499C716.312 549.527 710.716 553.6 703.812 553.6Z" stroke="#CBB9EF" stroke-miterlimit="10"/>
<path d="M711.107 352.039V538.54C714.225 537.058 716.313 534.393 716.313 531.342V359.617L711.107 352.039Z" fill="#5D4A9D"/>
<path d="M685.239 191.958C684.031 190.117 682.242 188.732 680.156 188.025V539.781H700.058C706.046 539.781 710.901 536.003 710.901 531.341V234.906C710.892 233.595 710.512 232.314 709.806 231.21L685.239 191.958Z" fill="#9D83C6"/>
<path d="M713.108 559.933H637.875C635.002 559.933 632.247 558.791 630.216 556.76C628.184 554.728 627.043 551.973 627.043 549.101V471.933C627.043 470.166 627.475 468.426 628.302 466.865C629.128 465.303 630.324 463.967 631.786 462.974L669.402 437.404C671.198 436.183 673.32 435.531 675.491 435.531C677.663 435.531 679.784 436.183 681.58 437.404L719.197 462.974C720.658 463.967 721.854 465.303 722.681 466.865C723.507 468.426 723.939 470.166 723.939 471.933V549.099C723.94 550.521 723.66 551.93 723.115 553.244C722.571 554.559 721.773 555.753 720.768 556.759C719.762 557.765 718.568 558.563 717.254 559.107C715.94 559.652 714.531 559.932 713.108 559.933Z" fill="#5D4A9D"/>
<path d="M677.224 444.981H673.756C670.342 444.981 667.573 447.749 667.573 451.164V550.265C667.573 553.68 670.342 556.448 673.756 556.448H677.224C680.639 556.448 683.407 553.68 683.407 550.265V451.164C683.407 447.749 680.639 444.981 677.224 444.981Z" fill="#6455AD"/>
<path d="M705.729 556.448H645.248C644.347 556.448 643.455 556.27 642.623 555.925C641.79 555.581 641.034 555.075 640.397 554.438C639.76 553.801 639.255 553.045 638.91 552.213C638.566 551.38 638.388 550.488 638.388 549.587V534.843C638.382 533.121 638.985 531.454 640.09 530.134C641.195 528.814 642.731 527.927 644.427 527.631C650.647 526.58 656.596 524.303 661.929 520.932C667.261 517.562 671.87 513.165 675.489 507.997C678.903 513.314 683.421 517.835 688.736 521.253C694.051 524.671 700.038 526.906 706.293 527.807C708.037 528.054 709.634 528.922 710.791 530.251C711.948 531.581 712.586 533.282 712.589 535.045V549.587C712.589 550.488 712.412 551.38 712.067 552.213C711.722 553.045 711.217 553.801 710.58 554.438C709.943 555.075 709.187 555.581 708.354 555.925C707.522 556.27 706.63 556.448 705.729 556.448Z" fill="#6455AD"/>
<path d="M685.24 191.958C681.281 185.634 669.703 185.634 665.745 191.958L641.178 231.209C640.471 232.313 640.091 233.594 640.083 234.905V240.415H710.901V234.905C710.893 233.594 710.513 232.313 709.806 231.209L685.24 191.958Z" fill="#5D4A9D"/>
<path d="M685.24 191.958C681.281 185.634 669.703 185.634 665.745 191.958L641.178 231.209C640.471 232.313 640.091 233.594 640.083 234.905V240.415H710.901V234.905C710.893 233.594 710.513 232.313 709.806 231.209L685.24 191.958Z" fill="#5D4A9D"/>
<path d="M640.083 289.705L667.042 282.398H684.341L711.108 289.705" stroke="#5D4A9D" stroke-miterlimit="10"/>
<path d="M640.083 382.319L667.042 375.012H684.341L711.108 382.319" stroke="#5D4A9D" stroke-miterlimit="10"/>
<path opacity="0.25" d="M710.9 234.905C710.892 233.595 710.512 232.313 709.806 231.209L703.063 220.438L643.471 227.541L641.174 231.211C640.468 232.315 640.088 233.597 640.079 234.907V240.417H710.9V234.905Z" fill="#A791C9"/>
<path d="M577.149 311.956L590.226 304.025V301.09L577.149 309.128V311.956Z" fill="#6E5F93"/>
<path d="M577.149 355.996L590.226 349.117V345.931L577.149 353.17V355.996Z" fill="#6E5F93"/>
<path d="M590.228 346.96L587.512 347.897V303.588H590.228V346.96Z" fill="#6E5F93"/>
<path d="M615.491 481.368H568.902" stroke="#5D4A9D" stroke-miterlimit="10"/>
<path d="M611.688 460.759C611.688 463.031 611.014 465.252 609.752 467.141C608.489 469.03 606.695 470.503 604.596 471.372C602.497 472.242 600.187 472.469 597.959 472.026C595.73 471.583 593.683 470.489 592.077 468.882C590.47 467.276 589.376 465.229 588.932 463C588.489 460.772 588.717 458.462 589.586 456.363C590.455 454.264 591.928 452.47 593.817 451.207C595.706 449.945 597.927 449.271 600.199 449.271C601.708 449.271 603.202 449.568 604.596 450.145C605.989 450.722 607.256 451.568 608.323 452.635C609.39 453.702 610.236 454.968 610.813 456.362C611.391 457.756 611.688 459.25 611.688 460.759Z" fill="#A791C9"/>
<path d="M601.222 449.318C598.916 449.113 596.602 449.609 594.583 450.742C592.564 451.875 590.934 453.591 589.908 455.667C588.881 457.742 588.506 460.079 588.831 462.371C589.156 464.663 590.166 466.804 591.729 468.512C593.291 470.22 595.334 471.416 597.588 471.943C599.843 472.47 602.204 472.304 604.362 471.465C606.52 470.627 608.374 469.156 609.682 467.246C610.989 465.335 611.689 463.074 611.689 460.759C611.688 457.889 610.614 455.124 608.677 453.006C606.74 450.889 604.08 449.574 601.222 449.318Z" fill="#5D4A9D"/>
<path d="M722.874 451.516H745.328L770.587 460.759" stroke="#5D4A9D" stroke-miterlimit="10"/>
<path d="M740.693 408.406L803.11 499.235C808.703 507.373 812.612 516.547 814.607 526.218C814.772 526.999 814.762 527.806 814.577 528.582C814.393 529.357 814.04 530.083 813.542 530.706C813.045 531.329 812.415 531.835 811.7 532.186C810.984 532.538 810.199 532.726 809.402 532.739C775.206 533.237 724.158 541.192 724.158 541.192" stroke="#410099" stroke-miterlimit="10"/>
</svg>
