<svg width="778" height="403" viewBox="0 0 778 403" fill="none" xmlns="http://www.w3.org/2000/svg">
<path d="M777 162.076C680.621 177.809 724.16 405.523 672.166 398.856C620.172 392.19 629.05 50.6712 592.696 50.6712C556.342 50.6712 601.995 225.94 540.701 228.293C479.408 230.645 514.071 105.962 469.263 108.31C424.455 110.659 483.635 346.708 387.256 348.668C290.877 350.628 309.898 1.65874 267.628 4.01185C225.357 6.36495 265.936 286.323 191.85 284.709C117.765 283.094 169.874 67.377 82.4742 72.629C45.8317 74.8313 69.7922 136.085 55.1817 150.181C34.3973 170.232 2 161.023 2 161.023" stroke="#4E0BA9" stroke-width="8" stroke-miterlimit="10"/>
</svg>
