<svg width="160" height="34" viewBox="0 0 160 34" fill="none" xmlns="http://www.w3.org/2000/svg">
<path d="M14.2592 23.5359H13.9776C13.4959 24.3211 12.8155 24.9652 12.0051 25.4031C10.9893 25.9489 9.84688 26.2156 8.69439 26.1761C7.60631 26.1795 6.53063 25.945 5.54266 25.4891C4.54685 25.0329 3.64957 24.3868 2.90108 23.5871C2.11627 22.7433 1.50048 21.7569 1.08705 20.6813C0.194943 18.2968 0.194943 15.6701 1.08705 13.2856C1.50061 12.2101 2.11639 11.2239 2.90108 10.3802C3.64944 9.58035 4.54675 8.93427 5.54266 8.47824C6.53063 8.02233 7.60631 7.78787 8.69439 7.79128C9.84688 7.75171 10.9893 8.01842 12.0051 8.56423C12.8151 9.00239 13.4954 9.64623 13.9776 10.4309H14.2592L13.9776 7.96713V0.397461H18.5911V25.6152H14.2592V23.5359ZM9.64561 21.9161C10.2428 21.9188 10.8348 21.8052 11.3886 21.5818C11.9363 21.362 12.4336 21.0333 12.8505 20.6156C13.2882 20.1701 13.6351 19.6438 13.8718 19.0658C14.3881 17.7291 14.3881 16.2479 13.8718 14.9112C13.6351 14.3332 13.2882 13.8069 12.8505 13.3614C12.4337 12.943 11.9364 12.6135 11.3886 12.3928C10.8347 12.1696 10.2428 12.0561 9.64561 12.0585C9.04654 12.0561 8.45328 12.1759 7.90211 12.4107C7.35585 12.6418 6.85957 12.9766 6.44074 13.3967C6.003 13.842 5.65598 14.3682 5.41899 14.946C4.90302 16.2591 4.90302 17.7189 5.41899 19.032C5.65586 19.6098 6.00289 20.136 6.44074 20.5813C6.85941 21.0015 7.35573 21.3364 7.90211 21.5673C8.45345 21.8011 9.04675 21.9198 9.64561 21.9161Z" fill="white"/>
<path d="M24.502 6.03273C23.717 6.03274 22.9638 5.72263 22.4063 5.16991C22.1375 4.90208 21.9223 4.58527 21.7725 4.23657C21.4672 3.49176 21.4672 2.65671 21.7725 1.9119C21.9226 1.56348 22.1377 1.24687 22.4063 0.979041C22.9672 0.426156 23.7232 0.116211 24.5107 0.116211C25.2983 0.116211 26.0542 0.426156 26.6151 0.979041C26.8938 1.25223 27.1152 1.57828 27.2663 1.93808C27.4174 2.29788 27.4953 2.68422 27.4953 3.07448C27.4953 3.46473 27.4174 3.85107 27.2663 4.21088C27.1152 4.57068 26.8938 4.89672 26.6151 5.16991C26.3392 5.44873 26.0098 5.66889 25.6467 5.81716C25.2836 5.96543 24.8942 6.03876 24.502 6.03273ZM22.2126 25.6146V8.3574H26.8262V25.6146H22.2126Z" fill="white"/>
<path d="M135.87 6.03273C135.085 6.03267 134.332 5.72256 133.775 5.16992C133.506 4.90221 133.291 4.58536 133.141 4.23657C132.836 3.49176 132.836 2.65671 133.141 1.9119C133.291 1.56339 133.506 1.24675 133.775 0.979041C134.336 0.426156 135.092 0.116211 135.879 0.116211C136.667 0.116211 137.423 0.426156 137.984 0.979041C138.262 1.25223 138.484 1.57828 138.635 1.93808C138.786 2.29788 138.864 2.68422 138.864 3.07448C138.864 3.46473 138.786 3.85107 138.635 4.21088C138.484 4.57068 138.262 4.89672 137.984 5.16992C137.708 5.44874 137.378 5.66891 137.015 5.81718C136.652 5.96545 136.262 6.03877 135.87 6.03273Z" fill="white"/>
<path d="M38.8372 33.7867C37.7327 33.8044 36.6326 33.6438 35.5792 33.3113C34.6945 33.0273 33.8576 32.6117 33.0966 32.0784C32.4306 31.6105 31.8373 31.0469 31.3357 30.4059C30.8987 29.8546 30.5538 29.2361 30.3144 28.5745L34.7164 26.8131C35.0089 27.6816 35.5781 28.4301 36.3367 28.9441C37.2531 29.5359 38.3457 29.7935 39.4299 29.6733C40.5142 29.5532 41.5238 29.0627 42.2885 28.2847C43.1339 27.3397 43.5566 26.0392 43.5566 24.3832V23.186H43.275C42.7236 23.9469 41.9912 24.5582 41.144 24.9648C40.1692 25.4194 39.1024 25.6423 38.0271 25.616C36.9909 25.6151 35.966 25.4013 35.0159 24.988C34.0409 24.5696 33.1605 23.9585 32.4275 23.1914C30.7782 21.4341 29.8602 19.1146 29.8602 16.7046C29.8602 14.2945 30.7782 11.975 32.4275 10.2178C33.1608 9.45125 34.0412 8.84051 35.0159 8.42208C35.9661 8.00877 36.9909 7.79501 38.0271 7.79405C39.1024 7.76793 40.1692 7.99098 41.144 8.44575C41.9909 8.85265 42.7233 9.46395 43.275 10.2245H43.5566V8.35734H47.9586V24.3817C47.9788 25.7207 47.752 27.052 47.2895 28.3088C46.8796 29.4138 46.244 30.4214 45.4233 31.2673C44.61 32.0865 43.6314 32.7229 42.5527 33.134C41.3658 33.5815 40.1056 33.8029 38.8372 33.7867ZM39.0131 21.4604C39.585 21.4588 40.1518 21.3534 40.686 21.1493C41.2305 20.9457 41.7279 20.6334 42.1479 20.2314C42.5835 19.8081 42.9306 19.3025 43.1692 18.744C43.4373 18.1038 43.5689 17.4147 43.5557 16.7207C43.5676 16.0214 43.436 15.3271 43.1692 14.6806C42.9337 14.1156 42.5863 13.604 42.1479 13.1767C41.7282 12.7745 41.2307 12.4621 40.686 12.2588C40.1519 12.0543 39.585 11.9488 39.0131 11.9472C38.4468 11.9477 37.8856 12.0534 37.358 12.2588C36.8173 12.4665 36.3256 12.7841 35.914 13.1917C35.4801 13.6231 35.1334 14.134 34.8927 14.6966C34.3762 15.9956 34.3762 17.443 34.8927 18.742C35.1308 19.3009 35.478 19.8066 35.914 20.2295C36.3293 20.6287 36.8203 20.9408 37.358 21.1474C37.8857 21.3526 38.4469 21.4582 39.0131 21.459V21.4604Z" fill="white"/>
<path d="M53.2663 6.03249C52.4815 6.03238 51.7285 5.72228 51.1711 5.16968C50.9021 4.90186 50.6868 4.58505 50.5368 4.23633C50.2322 3.49139 50.2322 2.65661 50.5368 1.91167C50.6871 1.56322 50.9023 1.24662 51.1711 0.978805C51.7317 0.425487 52.4876 0.115234 53.2753 0.115234C54.0629 0.115234 54.8189 0.425487 55.3794 0.978805C55.6582 1.25193 55.8797 1.57795 56.0309 1.93776C56.1822 2.29758 56.26 2.68394 56.26 3.07424C56.26 3.46454 56.1822 3.85091 56.0309 4.21072C55.8797 4.57053 55.6582 4.89655 55.3794 5.16968C55.1036 5.44852 54.7742 5.66869 54.411 5.81697C54.0479 5.96524 53.6585 6.03855 53.2663 6.03249ZM50.9774 25.6144V8.35716H55.591V25.6144H50.9774Z" fill="white"/>
<path d="M61.5417 12.3016H58.5132V8.35714H61.5417V3.07397H66.1558V8.35714H70.3819V12.3016H66.1558V19.1969C66.1526 19.5815 66.1939 19.9653 66.279 20.3404C66.3523 20.675 66.5168 20.9829 66.7544 21.2298C66.9301 21.4266 67.1482 21.581 67.3921 21.6814C67.6361 21.7818 67.8997 21.8256 68.1631 21.8095C68.4846 21.8203 68.8057 21.7787 69.1138 21.6863C69.35 21.603 69.575 21.4905 69.7834 21.3515L71.0877 25.4018C70.532 25.6644 69.9466 25.8591 69.3442 25.9815C68.6659 26.1156 67.9757 26.1803 67.2843 26.1748C66.4845 26.1868 65.6896 26.0465 64.9423 25.7612C64.2878 25.5107 63.6937 25.1249 63.1987 24.6288C62.0947 23.5499 61.5428 22.0159 61.5432 20.0269L61.5417 12.3016Z" fill="white"/>
<path d="M84.046 23.7831H83.7644C83.2117 24.4517 82.551 25.0232 81.8097 25.4739C80.9139 25.9771 79.8957 26.2212 78.8691 26.1787C78.01 26.1844 77.1569 26.0351 76.3507 25.7382C75.5951 25.4633 74.8966 25.0514 74.2903 24.5232C73.7034 24.0071 73.2349 23.3704 72.9169 22.6565C72.5827 21.9028 72.4146 21.0861 72.4241 20.2618C72.4112 19.4275 72.5919 18.6017 72.9521 17.8492C73.3048 17.1326 73.8096 16.5016 74.4314 16.0003C75.095 15.4681 75.8542 15.0675 76.6681 14.8201C77.5759 14.5427 78.5209 14.4062 79.4701 14.4153C80.4046 14.3958 81.3382 14.4845 82.2523 14.6796C82.8629 14.8197 83.4631 15.0021 84.0484 15.2255V14.6969C84.0552 14.2597 83.96 13.8269 83.7705 13.4328C83.581 13.0387 83.3024 12.6941 82.9566 12.4264C82.1884 11.8139 81.2269 11.4955 80.245 11.5283C79.4605 11.5264 78.6864 11.7068 77.9835 12.0551C77.2807 12.4034 76.6683 12.9102 76.1947 13.5356L72.8492 11.2467C74.6802 8.9455 77.1807 7.79492 80.3508 7.79492C83.0272 7.79492 85.0699 8.42295 86.4789 9.67901C87.8879 10.9351 88.5923 12.7958 88.592 15.2612V25.6155H84.0508L84.046 23.7831ZM84.046 18.6062C83.5088 18.3489 82.9487 18.1425 82.373 17.9897C81.7576 17.8321 81.1242 17.7551 80.489 17.7608C79.5804 17.7026 78.6793 17.9575 77.9358 18.483C77.6568 18.6879 77.4301 18.9558 77.2741 19.2647C77.118 19.5737 77.0371 19.9151 77.0377 20.2613C77.0297 20.5926 77.1044 20.9207 77.2551 21.2159C77.4057 21.5111 77.6275 21.7641 77.9005 21.9521C78.4767 22.3752 79.1757 22.5978 79.8904 22.5859C80.4475 22.5911 81.0002 22.4865 81.5168 22.278C82.0335 22.0695 82.504 21.7613 82.9016 21.3709C83.633 20.6367 84.0444 19.6426 84.046 18.6062Z" fill="white"/>
<path d="M91.6484 25.6142V0.396484H96.2625V25.6142H91.6484Z" fill="white"/>
<path d="M99.9062 8.35685H104.729V10.611H105.042C105.677 9.73746 106.519 9.03542 107.493 8.56796C108.56 8.04464 109.735 7.77984 110.923 7.79501C112.213 7.75117 113.489 8.06911 114.608 8.71289C115.522 9.23765 116.259 10.0223 116.726 10.967C117.395 10.0379 118.266 9.27318 119.274 8.73077C120.503 8.07659 121.882 7.7547 123.273 7.79694C124.316 7.77389 125.353 7.94728 126.332 8.30806C127.143 8.61411 127.874 9.10194 128.468 9.73416C129.045 10.3694 129.479 11.1198 129.743 11.9356C130.038 12.8393 130.184 13.7848 130.174 14.7352V25.6179H125.039V15.5768C125.039 13.2292 123.968 12.0553 121.824 12.055C121.223 12.0399 120.627 12.1678 120.085 12.4282C119.544 12.6886 119.071 13.0739 118.707 13.5526C118.338 14.0449 118.06 14.5996 117.886 15.1903C117.686 15.8524 117.587 16.541 117.592 17.2328V25.615H112.453V15.5768C112.453 13.2292 111.329 12.0553 109.081 12.055C108.481 12.0423 107.888 12.1815 107.356 12.4598C106.862 12.7266 106.433 13.0995 106.1 13.5516C105.742 14.0458 105.476 14.6006 105.315 15.1893C105.128 15.8538 105.035 16.5415 105.04 17.2318V25.6141H99.9062V8.35685Z" fill="white"/>
<path d="M159.772 8.30371H152.907L148.985 13.0936H148.659L144.504 8.30371H133.448V25.5614H144.411L148.566 20.6304H148.892L153.187 25.5614H159.772L151.801 16.8541C151.785 16.8372 151.777 16.8151 151.777 16.7922C151.777 16.7693 151.785 16.7472 151.801 16.7304L159.772 8.30371ZM138.41 24.0199V9.72499C138.41 9.70675 138.416 9.68896 138.426 9.67392C138.436 9.65888 138.451 9.6473 138.468 9.64068C138.485 9.63406 138.503 9.63271 138.521 9.6368C138.539 9.6409 138.555 9.65025 138.567 9.66363L145.055 16.7314C145.071 16.748 145.079 16.7697 145.079 16.7922C145.079 16.8147 145.071 16.8365 145.055 16.8531L138.567 24.0807C138.555 24.0941 138.539 24.1034 138.521 24.1075C138.503 24.1116 138.485 24.1103 138.468 24.1038C138.451 24.0972 138.436 24.0857 138.426 24.0707C138.416 24.0558 138.41 24.0381 138.41 24.0199Z" fill="white"/>
</svg>
